<svg width="137" height="369" viewBox="0 0 137 369" fill="none" xmlns="http://www.w3.org/2000/svg">
<path fill-rule="evenodd" clip-rule="evenodd" d="M83.9331 333.621L78.6934 348.012L57.7467 348.645L56.3467 327.005L83.9331 333.621Z" fill="#F77F89"/>
<path fill-rule="evenodd" clip-rule="evenodd" d="M56.8271 346.155V365.064L113.466 366.133C113.466 366.133 111.856 352.62 82.8933 352.4C83.0015 346.461 83.0135 346.155 83.0135 346.155H56.8271Z" fill="#6367FD"/>
<path fill-rule="evenodd" clip-rule="evenodd" d="M30.9951 336.342L31.3857 350.512L53.2577 351.149L58.9421 335.378L30.9951 336.342Z" fill="#F77F89"/>
<path fill-rule="evenodd" clip-rule="evenodd" d="M64.0734 0C87.8743 0 92.8015 18.8887 92.8135 25.8257C92.8135 32.4365 91.2693 33.4454 91.3233 40.1466C91.3594 45.2364 93.126 48.8003 92.9637 51.6916C92.0264 66.7503 67.6547 71.0923 60.6965 71.1776C53.7383 71.2629 23.4419 66.3638 23.4419 54.6582C23.4419 46.4913 29.661 33.4304 29.4928 24.36C29.1202 5.52153 47.9758 0 64.0734 0Z" fill="black"/>
<path fill-rule="evenodd" clip-rule="evenodd" d="M30.875 347.997L31.1995 366.921L86.799 367.97C86.799 367.97 86.799 354.171 56.3463 353.915V347.997H30.875Z" fill="#6367FD"/>
<path fill-rule="evenodd" clip-rule="evenodd" d="M25.4189 206.054L25.5632 338.435L65.2934 337.712L65.8943 331.583L91.5158 334.469L107.776 196.431L98.9968 161.083L40.9697 159.758L25.4189 206.054Z" fill="#3B4161"/>
<path fill-rule="evenodd" clip-rule="evenodd" d="M72.2276 262.303L96.0525 295.748L91.5279 334.118L65.8643 331.608L72.2276 262.303Z" fill="#15192C"/>
<path fill-rule="evenodd" clip-rule="evenodd" d="M55.5113 171.67H97.7172L103.432 119.581L95.8064 79.6658L81.3852 68.0656L66.9281 62.6746L40.8198 66.0076L55.5113 171.67Z" fill="#F7D167"/>
<path d="M38.915 338.194L39.1914 197.38" stroke="#737999" stroke-width="1.7" stroke-linecap="round" stroke-linejoin="round"/>
<path fill-rule="evenodd" clip-rule="evenodd" d="M48.2583 62.032C38.3919 62.2579 8.9307 71.1927 4.62839 80.2581C1.3596 87.1349 -0.881681 149.358 6.79757 152.394C7.29054 152.593 7.80578 152.752 8.33582 152.866C7.87315 154.774 3.45067 198.941 4.57431 202.615C5.69796 206.29 8.64828 211.851 12.9205 211.651C29.4508 210.822 59.8193 192.697 62.8357 189.74C63.2984 184.138 64.5782 163.096 64.5782 163.096L61.9464 100.663L46.8823 66.2585C46.8823 66.2585 58.1248 61.8061 48.2583 62.032Z" fill="white"/>
<path fill-rule="evenodd" clip-rule="evenodd" d="M69.7578 61.6404C86.7207 63.4023 110.666 74.3901 113.748 79.3946C116.344 83.601 115.028 138.058 115.028 138.058C115.028 138.058 105.414 149.076 109.746 164.923C113.724 179.54 114.902 199.272 110.732 202.962C103.858 200.055 95.0188 188.405 93.4265 185.534C91.8342 182.662 91.4195 166.419 90.1938 162.945C88.968 159.472 83.4819 97.9771 83.4819 97.9771C83.4819 97.9771 80.9222 73.1352 69.7578 61.6404Z" fill="white"/>
<path d="M27.0532 66.8708C35.5917 79.8766 52.8911 94.6994 61.8082 100.356" stroke="#C9C9C9" stroke-width="2" stroke-linecap="round" stroke-linejoin="round"/>
<path d="M78.3447 63.1311C85.9459 71.6945 87.9047 86.2463 81.95 101.024" stroke="#C9C9C9" stroke-width="2" stroke-linecap="round" stroke-linejoin="round"/>
<path d="M35.6821 103.203C35.6821 102.084 36.0791 100.992 36.8228 100.062C37.5665 99.1324 38.6236 98.4079 39.8602 97.9803C41.0969 97.5527 42.4576 97.441 43.7702 97.6595C45.0828 97.878 46.2884 98.4168 47.2344 99.2078C48.1804 99.9987 48.8243 101.006 49.0847 102.103C49.3451 103.2 49.2102 104.336 48.6972 105.369C48.1842 106.402 47.3161 107.284 46.2026 107.905C45.0892 108.525 43.7805 108.856 42.442 108.855C40.6486 108.853 38.9293 108.257 37.6617 107.197C36.3941 106.138 35.6821 104.701 35.6821 103.203V103.203Z" stroke="#353823" stroke-width="3.41" stroke-linecap="round" stroke-linejoin="round"/>
<path fill-rule="evenodd" clip-rule="evenodd" d="M38.9746 103.202C38.9746 102.632 39.1772 102.074 39.5569 101.599C39.9365 101.124 40.4761 100.754 41.1075 100.536C41.7388 100.317 42.4335 100.26 43.1037 100.372C43.7739 100.483 44.3896 100.758 44.8728 101.162C45.356 101.565 45.685 102.079 45.8183 102.639C45.9517 103.199 45.8832 103.78 45.6217 104.307C45.3602 104.834 44.9174 105.285 44.3492 105.602C43.781 105.919 43.113 106.089 42.4297 106.089C41.5133 106.089 40.6345 105.785 39.9866 105.243C39.3386 104.702 38.9746 103.968 38.9746 103.202Z" fill="#353823"/>
<path d="M40.615 97.7562C36.0483 83.7466 35.7539 64.2505 47.5432 60.7368" stroke="#353823" stroke-width="3.41" stroke-linecap="round" stroke-linejoin="round"/>
<path d="M68.1294 58.3525C74.8532 60.7318 81.2586 71.7046 82.7608 81.1013" stroke="#353823" stroke-width="3.41" stroke-linecap="round" stroke-linejoin="round"/>
<path d="M75.5023 98.75C73.3511 90.0662 76.5959 82.1854 82.7489 81.1012C88.9019 80.017 95.6378 86.2111 97.7709 94.895C99.904 103.579 96.6773 111.46 90.5243 112.539C84.3713 113.618 77.6534 107.419 75.5023 98.75Z" stroke="#353823" stroke-width="3.41" stroke-linecap="round" stroke-linejoin="round"/>
<path d="M33.6573 85.0918L31.0615 127.311" stroke="#C9C9C9" stroke-width="2" stroke-linecap="round" stroke-linejoin="round"/>
<path d="M26.3501 86.3367L33.098 94.1973" stroke="#C9C9C9" stroke-width="2" stroke-linecap="round" stroke-linejoin="round"/>
<path fill-rule="evenodd" clip-rule="evenodd" d="M48.9016 123.953L22.9556 129.139L48.9016 123.953Z" fill="#606060"/>
<path d="M48.9016 123.953L22.9556 129.139" stroke="#C9C9C9" stroke-width="2" stroke-linecap="round" stroke-linejoin="round"/>
<path d="M24.2656 123.341L30.8753 127.557" stroke="#C9C9C9" stroke-width="2" stroke-linecap="round" stroke-linejoin="round"/>
<path d="M49.8869 148.404C38.9749 152.073 13.0529 156.46 8.1557 152.826C1.60611 147.962 -0.256624 97.7612 3.03019 84.4443C4.947 76.6941 14.6272 71.7046 19.6746 69.6968" stroke="#C9C9C9" stroke-width="2" stroke-linecap="round" stroke-linejoin="round"/>
<path d="M42.0872 150.552C38.9747 147.254 37.7849 130.81 39.2871 125.876" stroke="#C9C9C9" stroke-width="2" stroke-linecap="round" stroke-linejoin="round"/>
<path fill-rule="evenodd" clip-rule="evenodd" d="M42.4297 129.089C42.4285 128.826 42.5205 128.569 42.6941 128.351C42.8677 128.132 43.115 127.962 43.4048 127.861C43.6945 127.76 44.0137 127.733 44.3218 127.783C44.6299 127.834 44.9131 127.96 45.1356 128.145C45.358 128.33 45.5097 128.566 45.5714 128.823C45.6331 129.08 45.6021 129.347 45.4822 129.589C45.3623 129.832 45.159 130.039 44.898 130.185C44.637 130.331 44.33 130.409 44.016 130.409C43.808 130.409 43.6018 130.376 43.4094 130.31C43.217 130.244 43.0421 130.146 42.8947 130.024C42.7473 129.901 42.6304 129.755 42.5506 129.595C42.4708 129.434 42.4297 129.262 42.4297 129.089Z" fill="#C9C9C9"/>
<path d="M39.5395 169.396C36.0892 170.509 32.4222 171.079 28.7237 171.077C25.9794 171.055 23.2518 170.717 20.6178 170.073C20.4199 170.71 20.313 171.364 20.2993 172.021V182.507C20.2993 184.703 21.3439 186.81 23.2032 188.363C25.0625 189.917 27.5843 190.789 30.2138 190.789C32.8433 190.789 35.3651 189.917 37.2245 188.363C39.0838 186.81 40.1284 184.703 40.1284 182.507V172.011C40.1032 171.118 39.9043 170.235 39.5395 169.396Z" stroke="#C9C9C9" stroke-width="2" stroke-linecap="round" stroke-linejoin="round"/>
<path fill-rule="evenodd" clip-rule="evenodd" d="M77.9964 95.6331H129.81C132.953 95.6331 134.828 97.6861 134.017 100.216L114.013 161.686C113.525 162.978 112.57 164.113 111.279 164.933C109.988 165.754 108.424 166.22 106.803 166.269H55.0188C51.8822 166.269 50.0014 164.216 50.8126 161.686L70.8099 100.216C71.2958 98.9262 72.2472 97.7935 73.5337 96.9731C74.8203 96.1526 76.379 95.6846 77.9964 95.6331Z" fill="#6367FD"/>
<path fill-rule="evenodd" clip-rule="evenodd" d="M92.2969 92.4707H121.704C122.031 92.448 122.359 92.4946 122.658 92.6064C122.957 92.7182 123.217 92.8913 123.414 93.1098C123.612 93.3283 123.74 93.585 123.786 93.8559C123.833 94.1268 123.797 94.4032 123.681 94.6592L122.251 98.8355C122.009 99.4528 121.546 99.9934 120.925 100.385C120.304 100.776 119.555 100.999 118.778 101.024H89.3706C89.0446 101.045 88.7173 100.998 88.4191 100.886C88.1209 100.773 87.8613 100.6 87.6643 100.382C87.4673 100.164 87.3392 99.9082 87.2919 99.6378C87.2447 99.3675 87.2797 99.0916 87.3937 98.8355L88.8238 94.6592C89.0676 94.0427 89.5306 93.5029 90.1512 93.1118C90.7717 92.7208 91.5203 92.4971 92.2969 92.4707Z" fill="#3B4161"/>
<path fill-rule="evenodd" clip-rule="evenodd" d="M48.7512 126.965C51.042 125.858 53.4749 124.971 56.0038 124.32C59.6512 121.81 62.3311 111.896 63.2985 111.269C64.2659 110.641 67.5047 111.048 67.6008 111.987C68.0214 115.425 67.7991 119.441 64.1518 123.03C74.7633 117.393 75.5685 114.893 78.4888 116.78C81.4091 118.668 82.4606 127.874 79.9549 131.678C73.0568 142.179 54.9102 143.6 49.3581 143.67C47.9761 138.676 47.9761 132.637 48.7512 126.965Z" fill="#F77F89"/>
<path d="M25.5571 328.105L66.5852 327.005" stroke="#737999" stroke-width="1.7" stroke-linecap="round" stroke-linejoin="round"/>
<path d="M78.4465 194.082L65.9121 331.588" stroke="#737999" stroke-width="1.7" stroke-linecap="round" stroke-linejoin="round"/>
<path d="M66.9282 320.54L92.8382 323.08" stroke="#737999" stroke-width="1.7" stroke-linecap="round" stroke-linejoin="round"/>
<path d="M99.73 264.743C98.1442 264.876 96.5429 264.713 95.0414 264.266C93.54 263.82 92.1758 263.101 91.0473 262.161C89.9188 261.221 89.0539 260.083 88.5152 258.83C87.9764 257.577 87.7771 256.24 87.9316 254.915C88.0862 253.59 88.5907 252.31 89.4089 251.167C90.227 250.025 91.3384 249.048 92.663 248.308C93.9875 247.567 95.4922 247.081 97.0686 246.885C98.6449 246.689 100.254 246.788 101.779 247.174" stroke="#737999" stroke-width="1.7" stroke-linecap="round" stroke-linejoin="round"/>
<path d="M71.5245 270.901C68.4321 270.759 65.5281 269.614 63.4304 267.711C61.3327 265.807 60.2068 263.295 60.2921 260.709C60.3774 258.123 61.6673 255.666 63.8873 253.862C66.1073 252.058 69.0823 251.049 72.1795 251.049C72.5801 251.049 72.9586 251.064 73.3151 251.094" stroke="#737999" stroke-width="1.7" stroke-linecap="round" stroke-linejoin="round"/>
<path d="M80.3578 119.511L71.0742 125.72" stroke="#A7464F" stroke-width="3.41" stroke-linecap="round" stroke-linejoin="round"/>
<path d="M81.3488 125.936L69.5596 133.767" stroke="#A7464F" stroke-width="3.41" stroke-linecap="round" stroke-linejoin="round"/>
<path fill-rule="evenodd" clip-rule="evenodd" d="M133.121 125.64C132.976 123.572 133.721 118.979 135.921 114.597C136.726 113.011 136.774 110.401 133.944 110.401C130.723 110.401 126.415 115.802 128.536 122.232C130.657 128.662 133.331 128.561 133.121 125.64Z" fill="#F77F89"/>
<path fill-rule="evenodd" clip-rule="evenodd" d="M123.146 113.488C125.706 113.488 133.488 126.348 133.434 127.909C133.379 129.47 132.568 131.844 131.36 131.724C130.153 131.603 120.046 120.856 120.046 117.207C120.046 115.094 121.278 113.488 123.146 113.488Z" fill="#F77F89"/>
<path fill-rule="evenodd" clip-rule="evenodd" d="M119.805 120.876C122.996 120.876 131.408 131.126 131.468 132.301C131.528 133.476 129.828 134.555 128.422 134.605C127.016 134.655 116.963 127.768 116.963 124.566C116.945 122.608 118.003 120.876 119.805 120.876Z" fill="#F77F89"/>
<path fill-rule="evenodd" clip-rule="evenodd" d="M122.75 140.046C124.132 139.991 127.977 137.12 127.977 134.861C127.977 133.972 125.291 131.673 123.945 131.744C122.599 131.814 119.853 136.136 119.908 137.235C119.962 138.334 120.941 140.101 122.75 140.046Z" fill="#F77F89"/>
<path d="M127.978 118.241C130.736 122.076 133.464 126.985 133.433 127.909" stroke="#A7464F" stroke-width="3.41" stroke-linecap="round" stroke-linejoin="round"/>
<path d="M121.734 121.629C125.531 124.019 131.402 131.322 131.45 132.301" stroke="#A94B53" stroke-width="3.41" stroke-linecap="round" stroke-linejoin="round"/>
<path fill-rule="evenodd" clip-rule="evenodd" d="M38.7227 29.3594C38.7227 17.8696 49.7248 8.5332 63.3227 8.5332C76.9206 8.5332 87.8987 17.8495 87.8987 29.3393C87.8987 40.8292 76.8725 50.1656 63.3227 50.1656C49.7728 50.1656 38.7227 40.8543 38.7227 29.3594Z" fill="#F77F89"/>
<path fill-rule="evenodd" clip-rule="evenodd" d="M59.6816 30.8602C59.946 29.535 60.8833 28.5562 61.8207 28.6867C62.7581 28.8172 63.2749 29.9918 63.0225 31.317C62.7701 32.6421 61.8207 33.621 60.8833 33.4955C59.946 33.37 59.4232 32.1904 59.6816 30.8602Z" fill="#B5545C"/>
<path fill-rule="evenodd" clip-rule="evenodd" d="M78.1943 31.8541C78.4407 30.6143 79.33 29.7007 80.1892 29.8212C81.0485 29.9417 81.5472 31.041 81.3069 32.2808C81.0665 33.5206 80.1652 34.4292 79.3059 34.2886C78.4467 34.1481 77.9479 33.094 78.1943 31.8541Z" fill="#B5545C"/>
<path fill-rule="evenodd" clip-rule="evenodd" d="M42.4779 38.5201C43.938 41.9134 47.6094 59.5471 46.684 65.9521C50.5297 70.8211 67.6668 69.4658 72.7743 65.3448C70.2325 59.4166 70.1364 55.1651 71.0678 50.1656C71.9511 45.4873 41.0177 35.1369 42.4779 38.5201Z" fill="#F77F89"/>
<path fill-rule="evenodd" clip-rule="evenodd" d="M73.0505 8.03128C73.2608 12.9756 67.8589 17.699 53.1734 20.0431C54.7838 23.5117 54.916 28.727 46.8942 29.6657C37.5385 30.7499 36.7754 20.7659 36.7754 20.7659L50.7879 6.93702C50.7879 6.93702 72.8462 3.07696 73.0505 8.03128Z" fill="black"/>
<path fill-rule="evenodd" clip-rule="evenodd" d="M68.6407 4.55278C68.0398 8.94491 74.0907 19.6115 88.1032 19.9026C98.0658 19.9026 69.2235 0.155626 68.6407 4.55278Z" fill="black"/>
<path fill-rule="evenodd" clip-rule="evenodd" d="M52.3865 49.4278C51.0405 48.0072 52.9874 41.532 55.1085 38.5654C57.6682 37.3055 66.7475 38.3546 71.4284 34.9915C72.8044 33.9876 73.5435 34.7305 74.6131 35.8297C76.4938 37.7573 82.1481 38.7562 84.2632 39.8454C84.5757 42.6564 81.4871 49.0915 80.1532 50.5321C78.0621 52.816 58.9481 53.0218 52.3865 49.4278Z" fill="white"/>
<path d="M56.3463 39.1526C55.1085 37.4259 49.7006 29.7008 47.9761 27.7432" stroke="white" stroke-width="3.41" stroke-linecap="round" stroke-linejoin="round"/>
<path d="M53.4502 49.0161C49.7908 49.0161 41.0901 39.4538 40.0986 36.2463" stroke="white" stroke-width="3.41" stroke-linecap="round" stroke-linejoin="round"/>
<path fill-rule="evenodd" clip-rule="evenodd" d="M34.5161 31.0661C34.5161 29.7427 34.9859 28.4491 35.866 27.3487C36.7461 26.2484 37.9971 25.3908 39.4607 24.8843C40.9242 24.3779 42.5347 24.2454 44.0885 24.5036C45.6422 24.7617 47.0694 25.399 48.1896 26.3348C49.3098 27.2706 50.0726 28.4628 50.3817 29.7607C50.6907 31.0587 50.5321 32.4041 49.9259 33.6267C49.3196 34.8493 48.293 35.8943 46.9758 36.6296C45.6586 37.3648 44.11 37.7572 42.5258 37.7572C40.4015 37.7572 38.3642 37.0523 36.8621 35.7974C35.36 34.5426 34.5161 32.8407 34.5161 31.0661Z" fill="#F77F89"/>
<path d="M85.1284 363.497L31.1333 363.187" stroke="#4C4FD9" stroke-width="1.7" stroke-linecap="round" stroke-linejoin="round"/>
<path d="M86.2825 365.711C84.7984 361.791 78.9939 354.111 56.3467 353.925V352.023" stroke="#4C4FD9" stroke-width="1.7" stroke-linecap="round" stroke-linejoin="round"/>
<path d="M31.1333 357.986C32.4747 357.986 33.8031 358.207 35.0424 358.636C36.2817 359.065 37.4078 359.693 38.3564 360.486C39.3049 361.278 40.0574 362.219 40.5707 363.254C41.0841 364.289 41.3483 365.399 41.3483 366.52C41.3483 366.745 41.3483 366.966 41.3483 367.187" stroke="#4C4FD9" stroke-width="1.7" stroke-linecap="round" stroke-linejoin="round"/>
<path d="M62.3311 358.257L64.981 354.422" stroke="#4C4FD9" stroke-width="1.7" stroke-linecap="round" stroke-linejoin="round"/>
<path d="M68.5684 359.161L70.8277 355.396" stroke="#4C4FD9" stroke-width="1.7" stroke-linecap="round" stroke-linejoin="round"/>
<path d="M74.4688 360.149L76.4336 357.103" stroke="#4C4FD9" stroke-width="1.7" stroke-linecap="round" stroke-linejoin="round"/>
<path d="M63.7373 176.509L91.7984 175.776" stroke="#737999" stroke-width="1.7" stroke-linecap="round" stroke-linejoin="round"/>
<path d="M30.917 350.431L56.3463 350.085" stroke="#4C4FD9" stroke-width="1.7" stroke-linecap="round" stroke-linejoin="round"/>
<path d="M56.8271 348.358L82.9775 348.183" stroke="#4C4FD9" stroke-width="1.7" stroke-linecap="round" stroke-linejoin="round"/>
<path d="M112.108 362.825L84.2153 362.323" stroke="#4C4FD9" stroke-width="1.7" stroke-linecap="round" stroke-linejoin="round"/>
<path d="M91.3654 352.906L88.9619 356.475" stroke="#4C4FD9" stroke-width="1.7" stroke-linecap="round" stroke-linejoin="round"/>
<path d="M95.3733 353.705L92.9697 357.279" stroke="#4C4FD9" stroke-width="1.7" stroke-linecap="round" stroke-linejoin="round"/>
<path d="M99.6516 354.688L97.248 358.262" stroke="#4C4FD9" stroke-width="1.7" stroke-linecap="round" stroke-linejoin="round"/>
<path d="M20.3536 210.421C11.3403 213.573 4.57443 207.956 4.52035 202.389C4.46627 196.823 7.10414 163.608 7.46467 160.295" stroke="#C9C9C9" stroke-width="2" stroke-linecap="round" stroke-linejoin="round"/>
<path d="M114.89 87.3407C115.359 75.9763 101.034 70.7761 95.1392 68.5474" stroke="#C9C9C9" stroke-width="2" stroke-linecap="round" stroke-linejoin="round"/>
<path d="M112.09 200.783C113.214 194.725 113.292 178.331 111.393 172.076" stroke="#C9C9C9" stroke-width="2" stroke-linecap="round" stroke-linejoin="round"/>
</svg>
